<?xml version="1.0" encoding="UTF-8" standalone="no"?>
<!-- Created with Inkscape (http://www.inkscape.org/) -->

<svg
   width="210mm"
   height="297mm"
   viewBox="0 0 210 297"
   version="1.1"
   id="svg1"
   xml:space="preserve"
   inkscape:version="1.3.2 (091e20e, 2023-11-25, custom)"
   sodipodi:docname="dibujo_titulo.svg"
   xmlns:inkscape="http://www.inkscape.org/namespaces/inkscape"
   xmlns:sodipodi="http://sodipodi.sourceforge.net/DTD/sodipodi-0.dtd"
   xmlns:xlink="http://www.w3.org/1999/xlink"
   xmlns="http://www.w3.org/2000/svg"
   xmlns:svg="http://www.w3.org/2000/svg"><sodipodi:namedview
     id="namedview1"
     pagecolor="#ffffff"
     bordercolor="#000000"
     borderopacity="0.25"
     inkscape:showpageshadow="2"
     inkscape:pageopacity="0.0"
     inkscape:pagecheckerboard="0"
     inkscape:deskcolor="#d1d1d1"
     inkscape:document-units="mm"
     inkscape:zoom="2.768771"
     inkscape:cx="251.55565"
     inkscape:cy="535.43611"
     inkscape:window-width="1920"
     inkscape:window-height="991"
     inkscape:window-x="-9"
     inkscape:window-y="-9"
     inkscape:window-maximized="1"
     inkscape:current-layer="layer1" /><defs
     id="defs1"><linearGradient
       id="linearGradient5"
       inkscape:collect="always"><stop
         style="stop-color:#000000;stop-opacity:1;"
         offset="0"
         id="stop5" /><stop
         style="stop-color:#000000;stop-opacity:0;"
         offset="1"
         id="stop6" /></linearGradient><rect
       x="406.31745"
       y="526.22625"
       width="158.5541"
       height="16.252698"
       id="rect3" /><linearGradient
       inkscape:collect="always"
       xlink:href="#linearGradient5"
       id="linearGradient6"
       x1="46.25911"
       y1="159.36689"
       x2="112.893"
       y2="159.36689"
       gradientUnits="userSpaceOnUse" /></defs><g
     inkscape:label="Capa 1"
     inkscape:groupmode="layer"
     id="layer1"><text
       xml:space="preserve"
       style="font-size:12.7171px;fill:#000000;stroke-width:1.05975"
       x="-162.71976"
       y="41.867764"
       id="text1"
       transform="matrix(0.00824214,-0.9090567,1.0999979,0.00479615,0,0)"
       inkscape:export-filename="titulo_negro.svg"
       inkscape:export-xdpi="96"
       inkscape:export-ydpi="96"><tspan
         sodipodi:role="line"
         id="tspan1"
         style="font-style:normal;font-variant:normal;font-weight:normal;font-stretch:normal;font-family:Tahoma;-inkscape-font-specification:Tahoma;stroke-width:1.05975"
         x="-162.71976"
         y="41.867764">EL</tspan></text><text
       xml:space="preserve"
       style="font-size:22.802px;fill:#000000;stroke:#000000;stroke-width:0.9;stroke-dasharray:none;stroke-opacity:1"
       x="45.328979"
       y="143.91142"
       id="text2"
       transform="scale(0.98120973,1.0191501)"><tspan
         sodipodi:role="line"
         style="font-style:normal;font-variant:normal;font-weight:normal;font-stretch:normal;font-family:Tahoma;-inkscape-font-specification:Tahoma;stroke:#000000;stroke-width:0.9;stroke-dasharray:none;stroke-opacity:1"
         x="45.328979"
         y="143.91142"
         id="tspan4">Núcleo</tspan></text><text
       xml:space="preserve"
       transform="scale(0.26458333)"
       id="text3"
       style="fill:#000000;-inkscape-font-specification:Tahoma;font-family:Tahoma;font-weight:normal;font-style:normal;font-stretch:normal;font-variant:normal;white-space:pre;shape-inside:url(#rect3)" /><path
       fill="currentColor"
       d="m 37.081684,127.10255 a 2.5057274,2.4823256 0 0 1 1.518824,-0.50348 1.1259753,1.1154593 0 0 1 0.961272,0.49522 1.1259753,1.1154593 0 0 1 0.961271,-0.49522 2.5057274,2.4823256 0 0 1 1.518824,0.50348 c 0.336447,0.25901 0.595986,0.61772 0.687631,1.05135 0.210185,0.0168 0.402453,0.1022 0.563949,0.23226 0.244808,0.19675 0.422965,0.49202 0.535109,0.80437 0.175606,0.48568 0.223007,1.10467 0.04101,1.63159 0.0461,0.0216 0.09165,0.047 0.135855,0.0764 0.176231,0.11614 0.31017,0.28251 0.40886,0.47869 0.194184,0.38409 0.27429,0.91993 0.27429,1.57067 0,0.72438 -0.278776,1.21069 -0.632525,1.51097 a 1.7174806,1.7014405 0 0 1 -0.675458,0.35236 c -0.0641,0.35425 -0.243518,0.76437 -0.524859,1.11228 -0.365287,0.45393 -0.931792,0.83359 -1.691845,0.83359 -0.602396,0 -1.081757,-0.33016 -1.393212,-0.65392 a 2.7248986,2.6994499 0 0 1 -0.208902,-0.24442 2.7204125,2.6950057 0 0 1 -0.208904,0.24442 c -0.311461,0.32376 -0.790167,0.65392 -1.39322,0.65392 -0.760044,0 -1.325916,-0.37966 -1.691836,-0.83359 a 2.5999327,2.5756509 0 0 1 -0.524859,-1.11228 1.7174806,1.7014405 0 0 1 -0.675466,-0.35236 c -0.353741,-0.30028 -0.632509,-0.78723 -0.632509,-1.51097 0,-0.65074 0.08075,-1.1872 0.274281,-1.57067 a 1.2304341,1.2189426 0 0 1 0.408863,-0.47931 1.0125448,1.0030881 0 0 1 0.135855,-0.0749 c -0.181995,-0.52821 -0.134574,-1.14656 0.04101,-1.63225 0.112144,-0.31234 0.290305,-0.60756 0.535115,-0.80439 0.161504,-0.13005 0.353748,-0.21571 0.563941,-0.23227 0.09229,-0.4336 0.351839,-0.79231 0.688279,-1.05134 m 2.159035,1.0837 v -0.008 l -0.0015,-0.0316 a 1.7584953,1.742072 0 0 0 -0.0987,-0.48506 0.78311997,0.77580612 0 0 0 -0.198041,-0.31106 0.48704677,0.48249808 0 0 0 -0.342845,-0.11806 1.8648765,1.8474598 0 0 0 -1.125345,0.36947 c -0.297352,0.22916 -0.47679,0.53965 -0.47679,0.90024 a 0.32042554,0.31743296 0 0 1 -0.421683,0.30095 c -0.120462,-0.0393 -0.228135,-0.0169 -0.342851,0.0741 -0.125612,0.1015 -0.248006,0.28189 -0.335798,0.52502 -0.178804,0.49651 -0.160237,1.09772 0.08524,1.4634 a 0.32042554,0.31743296 0 0 1 0.05384,0.17587 h 0.480636 a 1.4419148,1.4284482 0 0 1 1.441907,1.42845 v 0.21259 a 0.96127666,0.95229892 0 1 1 -0.640851,0 v -0.21259 c 0,-0.43805 -0.358876,-0.7936 -0.801056,-0.7936 h -1.121485 a 0.31978467,0.31679808 0 0 1 -0.112145,-0.0191 l -0.0015,0.005 c -0.126902,0.25077 -0.206361,0.66724 -0.206361,1.28625 0,0.54533 0.201852,0.85261 0.408854,1.02847 0.22238,0.18931 0.469112,0.24125 0.552424,0.24125 a 0.32042554,0.31743296 0 0 1 0.320423,0.31742 c 0,0.23371 0.128175,0.64187 0.410143,0.99231 0.274922,0.33965 0.670337,0.59487 1.191985,0.59487 0.358883,0 0.680579,-0.19869 0.929227,-0.4571 0.122423,-0.12695 0.2179,-0.25839 0.280059,-0.36632 a 1.0080587,0.99864408 0 0 0 0.07249,-0.14972 v -5.05799 h -0.695688 a 0.96127666,0.95229892 0 1 1 0,-0.63486 h 0.695331 z m 0.640849,6.34803 v 0.61392 a 1.0093405,0.99991381 0 0 0 0.07249,0.14973 c 0.06279,0.10797 0.157656,0.23946 0.27941,0.36634 0.249287,0.25838 0.571646,0.4571 0.929875,0.4571 0.521655,0 0.917055,-0.25523 1.191976,-0.59488 0.281969,-0.35045 0.410145,-0.75865 0.410145,-0.9923 a 0.32042554,0.31743296 0 0 1 0.320436,-0.31744 c 0.08331,0 0.330029,-0.0522 0.552409,-0.24122 0.206989,-0.1759 0.408863,-0.48315 0.408863,-1.0285 0,-0.619 -0.08008,-1.03483 -0.206369,-1.28623 a 0.59150553,0.58598122 0 0 0 -0.192237,-0.23492 0.42103914,0.41710689 0 0 0 -0.242243,-0.0655 0.32042554,0.31743296 0 0 1 -0.26659,-0.49329 c 0.246075,-0.36568 0.264031,-0.96688 0.08523,-1.46339 -0.08779,-0.24312 -0.210193,-0.42406 -0.335799,-0.52503 -0.114724,-0.0914 -0.222373,-0.11421 -0.342865,-0.0741 a 0.32042554,0.31743296 0 0 1 -0.421676,-0.30095 c 0,-0.36059 -0.17943,-0.67103 -0.47743,-0.90023 a 1.8648765,1.8474598 0 0 0 -1.12469,-0.36948 0.48704677,0.48249808 0 0 0 -0.342866,0.11806 0.78183836,0.77453643 0 0 0 -0.198662,0.31107 1.6527548,1.6373191 0 0 0 -0.09934,0.5168 v 5.72013 h 0.480651 c 0.442188,0 0.801064,-0.35554 0.801064,-0.7936 v -1.16496 a 0.96127666,0.95229892 0 1 1 0.640843,0 v 1.16496 a 1.4419148,1.4284482 0 0 1 -1.441907,1.42846 z m -2.563408,-4.76085 a 0.32042713,0.31743454 0 1 0 0.640849,0 0.32042713,0.31743454 0 0 0 -0.640849,0 m 4.165544,1.58717 a 0.3204377,0.317445 0 1 0 0,-0.63489 0.3204377,0.317445 0 0 0 0,0.63489 m -3.845115,1.9046 a 0.32042584,0.31743326 0 1 0 0,0.63486 0.32042584,0.31743326 0 0 0 0,-0.63486"
       id="path1"
       style="stroke-width:0.637851" /><text
       xml:space="preserve"
       style="font-size:12.7171px;fill:#ffffff;stroke-width:1.05975"
       x="-190.3139"
       y="41.805962"
       id="text1-3"
       transform="matrix(0.00824214,-0.9090567,1.0999979,0.00479615,0,0)"
       inkscape:export-filename="titulo_blanco.svg"
       inkscape:export-xdpi="96"
       inkscape:export-ydpi="96"><tspan
         sodipodi:role="line"
         id="tspan1-8"
         style="font-style:normal;font-variant:normal;font-weight:normal;font-stretch:normal;font-family:Tahoma;-inkscape-font-specification:Tahoma;stroke-width:1.05975;fill:#ffffff"
         x="-190.3139"
         y="41.805962">EL</tspan></text><text
       xml:space="preserve"
       style="font-size:22.802px;fill:#ffffff;stroke:#ffffff;stroke-width:0.9;stroke-dasharray:none;stroke-opacity:1"
       x="45.027908"
       y="168.52443"
       id="text2-2"
       transform="scale(0.98120973,1.0191501)"><tspan
         sodipodi:role="line"
         style="font-style:normal;font-variant:normal;font-weight:normal;font-stretch:normal;font-family:Tahoma;-inkscape-font-specification:Tahoma;stroke:#ffffff;stroke-width:0.9;stroke-dasharray:none;stroke-opacity:1;fill:#ffffff"
         x="45.027908"
         y="168.52443"
         id="tspan4-7">Núcleo</tspan></text><path
       fill="currentColor"
       d="m 36.786268,152.1869 a 2.5057274,2.4823256 0 0 1 1.518824,-0.50348 1.1259753,1.1154593 0 0 1 0.961272,0.49522 1.1259753,1.1154593 0 0 1 0.961271,-0.49522 2.5057274,2.4823256 0 0 1 1.518824,0.50348 c 0.336447,0.25901 0.595986,0.61772 0.687631,1.05135 0.210185,0.0168 0.402453,0.1022 0.563949,0.23226 0.244808,0.19675 0.422965,0.49202 0.535109,0.80437 0.175606,0.48568 0.223007,1.10467 0.04101,1.63159 0.0461,0.0216 0.09165,0.047 0.135855,0.0764 0.176231,0.11614 0.31017,0.28251 0.40886,0.47869 0.194184,0.38409 0.27429,0.91993 0.27429,1.57067 0,0.72438 -0.278776,1.21069 -0.632525,1.51097 a 1.7174806,1.7014405 0 0 1 -0.675458,0.35236 c -0.0641,0.35425 -0.243518,0.76437 -0.524859,1.11228 -0.365287,0.45393 -0.931792,0.83359 -1.691845,0.83359 -0.602396,0 -1.081757,-0.33016 -1.393212,-0.65392 a 2.7248986,2.6994499 0 0 1 -0.208902,-0.24442 2.7204125,2.6950057 0 0 1 -0.208904,0.24442 c -0.311461,0.32376 -0.790167,0.65392 -1.39322,0.65392 -0.760044,0 -1.325916,-0.37966 -1.691836,-0.83359 a 2.5999327,2.5756509 0 0 1 -0.524859,-1.11228 1.7174806,1.7014405 0 0 1 -0.675466,-0.35236 c -0.353741,-0.30028 -0.632509,-0.78723 -0.632509,-1.51097 0,-0.65074 0.08075,-1.1872 0.274281,-1.57067 a 1.2304341,1.2189426 0 0 1 0.408863,-0.47931 1.0125448,1.0030881 0 0 1 0.135855,-0.0749 c -0.181995,-0.52821 -0.134574,-1.14656 0.04101,-1.63225 0.112144,-0.31234 0.290305,-0.60756 0.535115,-0.80439 0.161504,-0.13005 0.353748,-0.21571 0.563941,-0.23227 0.09229,-0.4336 0.351839,-0.79231 0.688279,-1.05134 m 2.159035,1.0837 v -0.008 l -0.0015,-0.0316 a 1.7584953,1.742072 0 0 0 -0.0987,-0.48506 0.78311997,0.77580612 0 0 0 -0.198041,-0.31106 0.48704677,0.48249808 0 0 0 -0.342845,-0.11806 1.8648765,1.8474598 0 0 0 -1.125345,0.36947 c -0.297352,0.22916 -0.47679,0.53965 -0.47679,0.90024 a 0.32042554,0.31743296 0 0 1 -0.421683,0.30095 c -0.120462,-0.0393 -0.228135,-0.0169 -0.342851,0.0741 -0.125612,0.1015 -0.248006,0.28189 -0.335798,0.52502 -0.178804,0.49651 -0.160237,1.09772 0.08524,1.4634 a 0.32042554,0.31743296 0 0 1 0.05384,0.17587 h 0.480636 a 1.4419148,1.4284482 0 0 1 1.441907,1.42845 v 0.21259 a 0.96127666,0.95229892 0 1 1 -0.640851,0 v -0.21259 c 0,-0.43805 -0.358876,-0.7936 -0.801056,-0.7936 h -1.121485 a 0.31978467,0.31679808 0 0 1 -0.112145,-0.0191 l -0.0015,0.005 c -0.126902,0.25077 -0.206361,0.66724 -0.206361,1.28625 0,0.54533 0.201852,0.85261 0.408854,1.02847 0.22238,0.18931 0.469112,0.24125 0.552424,0.24125 a 0.32042554,0.31743296 0 0 1 0.320423,0.31742 c 0,0.23371 0.128175,0.64187 0.410143,0.99231 0.274922,0.33965 0.670337,0.59487 1.191985,0.59487 0.358883,0 0.680579,-0.19869 0.929227,-0.4571 0.122423,-0.12695 0.2179,-0.25839 0.280059,-0.36632 a 1.0080587,0.99864408 0 0 0 0.07249,-0.14972 v -5.05799 h -0.695688 a 0.96127666,0.95229892 0 1 1 0,-0.63486 h 0.695331 z m 0.640849,6.34803 v 0.61392 a 1.0093405,0.99991381 0 0 0 0.07249,0.14973 c 0.06279,0.10797 0.157656,0.23946 0.27941,0.36634 0.249287,0.25838 0.571646,0.4571 0.929875,0.4571 0.521655,0 0.917055,-0.25523 1.191976,-0.59488 0.281969,-0.35045 0.410145,-0.75865 0.410145,-0.9923 a 0.32042554,0.31743296 0 0 1 0.320436,-0.31744 c 0.08331,0 0.330029,-0.0522 0.552409,-0.24122 0.206989,-0.1759 0.408863,-0.48315 0.408863,-1.0285 0,-0.619 -0.08008,-1.03483 -0.206369,-1.28623 a 0.59150553,0.58598122 0 0 0 -0.192237,-0.23492 0.42103914,0.41710689 0 0 0 -0.242243,-0.0655 0.32042554,0.31743296 0 0 1 -0.26659,-0.49329 c 0.246075,-0.36568 0.264031,-0.96688 0.08523,-1.46339 -0.08779,-0.24312 -0.210193,-0.42406 -0.335799,-0.52503 -0.114724,-0.0914 -0.222373,-0.11421 -0.342865,-0.0741 a 0.32042554,0.31743296 0 0 1 -0.421676,-0.30095 c 0,-0.36059 -0.17943,-0.67103 -0.47743,-0.90023 a 1.8648765,1.8474598 0 0 0 -1.12469,-0.36948 0.48704677,0.48249808 0 0 0 -0.342866,0.11806 0.78183836,0.77453643 0 0 0 -0.198662,0.31107 1.6527548,1.6373191 0 0 0 -0.09934,0.5168 v 5.72013 h 0.480651 c 0.442188,0 0.801064,-0.35554 0.801064,-0.7936 v -1.16496 a 0.96127666,0.95229892 0 1 1 0.640843,0 v 1.16496 a 1.4419148,1.4284482 0 0 1 -1.441907,1.42846 z m -2.563408,-4.76085 a 0.32042713,0.31743454 0 1 0 0.640849,0 0.32042713,0.31743454 0 0 0 -0.640849,0 m 4.165544,1.58717 a 0.3204377,0.317445 0 1 0 0,-0.63489 0.3204377,0.317445 0 0 0 0,0.63489 m -3.845115,1.9046 a 0.32042584,0.31743326 0 1 0 0,0.63486 0.32042584,0.31743326 0 0 0 0,-0.63486"
       id="path1-2"
       style="stroke-width:0.637851;fill:#ffffff" /></g></svg>
