<?xml version="1.0" encoding="UTF-8" standalone="no"?>
<!-- Created with Inkscape (http://www.inkscape.org/) -->

<svg
   width="322.40982"
   height="85.95462"
   viewBox="0 0 77.140593 20.565741"
   version="1.1"
   id="svg1"
   xml:space="preserve"
   sodipodi:docname="titulo_negro.svg"
   inkscape:version="1.3.2 (091e20e, 2023-11-25, custom)"
   xmlns:inkscape="http://www.inkscape.org/namespaces/inkscape"
   xmlns:sodipodi="http://sodipodi.sourceforge.net/DTD/sodipodi-0.dtd"
   xmlns="http://www.w3.org/2000/svg"
   xmlns:svg="http://www.w3.org/2000/svg"><sodipodi:namedview
     id="namedview1"
     pagecolor="#ffffff"
     bordercolor="#000000"
     borderopacity="0.25"
     inkscape:showpageshadow="2"
     inkscape:pageopacity="0.0"
     inkscape:pagecheckerboard="0"
     inkscape:deskcolor="#d1d1d1"
     inkscape:document-units="cm"
     showgrid="false"
     inkscape:zoom="1.0824912"
     inkscape:cx="189.83988"
     inkscape:cy="-14.318823"
     inkscape:window-width="1920"
     inkscape:window-height="991"
     inkscape:window-x="-9"
     inkscape:window-y="-9"
     inkscape:window-maximized="1"
     inkscape:current-layer="layer1" /><defs
     id="defs1" /><g
     inkscape:label="Capa 1"
     inkscape:groupmode="layer"
     id="layer1"
     transform="translate(-67.282827,-127.77476)"><text
       xml:space="preserve"
       style="font-size:12.664px;fill:#000000;stroke-width:1.05532"
       x="-165.27963"
       y="71.055695"
       id="text1"
       transform="matrix(0.00833121,-0.89933711,1.1118861,0.00474487,0,0)"
       inkscape:export-filename="titulo_negro.svg"
       inkscape:export-xdpi="96"
       inkscape:export-ydpi="96"><tspan
         sodipodi:role="line"
         id="tspan1"
         style="font-style:normal;font-variant:normal;font-weight:normal;font-stretch:normal;font-family:Tahoma;-inkscape-font-specification:Tahoma;stroke-width:1.05532"
         x="-165.27963"
         y="71.055695">EL</tspan></text><text
       xml:space="preserve"
       style="font-size:22.7068px;fill:#000000;stroke:#000000;stroke-width:0.896244;stroke-dasharray:none;stroke-opacity:1"
       x="78.029991"
       y="146.33804"
       id="text2"
       transform="scale(0.99181418,1.0082534)"><tspan
         sodipodi:role="line"
         style="font-style:normal;font-variant:normal;font-weight:normal;font-stretch:normal;font-family:Tahoma;-inkscape-font-specification:Tahoma;stroke:#000000;stroke-width:0.896244;stroke-dasharray:none;stroke-opacity:1"
         x="78.029991"
         y="146.33804"
         id="tspan4">Núcleo</tspan></text><path
       fill="currentColor"
       d="m 69.946968,128.27105 a 2.5222357,2.4455338 0 0 1 1.528833,-0.49601 1.1333935,1.0989265 0 0 1 0.967605,0.48789 1.1333935,1.0989265 0 0 1 0.967603,-0.48789 2.5222357,2.4455338 0 0 1 1.52883,0.49601 c 0.338663,0.25514 0.599912,0.60859 0.692161,1.03579 0.211585,0.0178 0.405106,0.10077 0.567664,0.22876 0.246416,0.19379 0.425754,0.48472 0.538636,0.79245 0.176753,0.47847 0.224473,1.08829 0.04129,1.60739 0.04639,0.0207 0.09227,0.0462 0.136761,0.0753 0.177387,0.11438 0.312213,0.27824 0.411553,0.4716 0.195466,0.37839 0.276086,0.90629 0.276086,1.54741 0,0.71363 -0.280614,1.19275 -0.636693,1.48857 a 1.7287958,1.6762225 0 0 1 -0.679908,0.34713 c -0.06453,0.34901 -0.245119,0.75304 -0.528317,1.0958 -0.367693,0.4472 -0.937931,0.82122 -1.70299,0.82122 -0.606365,0 -1.088884,-0.32525 -1.402393,-0.6442 a 2.7428509,2.6594399 0 0 1 -0.210286,-0.24091 2.7383353,2.6550616 0 0 1 -0.210288,0.24091 c -0.313511,0.31895 -0.795372,0.6442 -1.402398,0.6442 -0.76505,0 -1.334651,-0.37402 -1.702981,-0.82122 a 2.6170617,2.5374758 0 0 1 -0.528316,-1.0958 1.7287958,1.6762225 0 0 1 -0.679919,-0.34713 c -0.35607,-0.29573 -0.636674,-0.77557 -0.636674,-1.48857 0,-0.64112 0.08128,-1.1696 0.276087,-1.54741 a 1.2385405,1.200876 0 0 1 0.411558,-0.47219 1.0192157,0.98822082 0 0 1 0.13676,-0.0738 c -0.183183,-0.5204 -0.135463,-1.12957 0.0413,-1.60807 0.112885,-0.30771 0.292205,-0.59858 0.538639,-0.79249 0.162568,-0.128 0.356079,-0.21245 0.567658,-0.22875 0.09291,-0.42718 0.354155,-0.78057 0.692812,-1.03576 m 2.173259,1.06764 v -0.009 l -0.0015,-0.0311 a 1.7700807,1.7162519 0 0 0 -0.09933,-0.47785 0.78827934,0.7643075 0 0 0 -0.19936,-0.30646 0.49025556,0.47534671 0 0 0 -0.345101,-0.11645 1.8771628,1.8200776 0 0 0 -1.132762,0.36397 c -0.299298,0.2258 -0.479929,0.53166 -0.479929,0.88691 a 0.32253659,0.31272812 0 0 1 -0.424462,0.29647 c -0.121246,-0.0388 -0.229635,-0.0178 -0.34511,0.0729 -0.126437,0.0999 -0.249646,0.27765 -0.338011,0.51723 -0.179983,0.48916 -0.161299,1.08145 0.08581,1.44171 a 0.32253659,0.31272812 0 0 1 0.0542,0.17335 h 0.483802 a 1.4514145,1.4072764 0 0 1 1.451406,1.40728 v 0.20951 a 0.96760978,0.93818438 0 1 1 -0.645071,0 v -0.20951 c 0,-0.43156 -0.36124,-0.78184 -0.806335,-0.78184 h -1.128874 a 0.32189148,0.31210265 0 0 1 -0.112886,-0.0178 l -0.0015,0.006 c -0.127735,0.24713 -0.207721,0.65733 -0.207721,1.26718 0,0.53724 0.203194,0.83996 0.411546,1.01322 0.223839,0.18638 0.472203,0.23764 0.556064,0.23764 a 0.32253659,0.31272812 0 0 1 0.322536,0.31271 c 0,0.23025 0.129033,0.63238 0.412844,0.97762 0.276721,0.3346 0.674754,0.58603 1.199838,0.58603 0.361249,0 0.685064,-0.19556 0.93535,-0.45032 0.123239,-0.12505 0.219343,-0.25453 0.281913,-0.36088 a 1.0147,0.98384266 0 0 0 0.07295,-0.14757 v -4.98301 h -0.70027 a 0.96760978,0.93818438 0 1 1 0,-0.62545 h 0.699911 z m 0.645071,6.25396 v 0.60482 a 1.0159903,0.98509357 0 0 0 0.07295,0.14757 c 0.0632,0.10638 0.158704,0.23586 0.281247,0.36088 0.250914,0.25454 0.575412,0.45035 0.936003,0.45035 0.52509,0 0.923096,-0.25157 1.199829,-0.58606 0.283814,-0.34528 0.412847,-0.74741 0.412847,-0.97759 a 0.32253659,0.31272812 0 0 1 0.322545,-0.31274 c 0.08384,0 0.332203,-0.0516 0.556049,-0.23764 0.208355,-0.17335 0.411558,-0.47602 0.411558,-1.01327 0,-0.60984 -0.08062,-1.01949 -0.207721,-1.26715 a 0.59540252,0.57729608 0 0 0 -0.193506,-0.23143 0.42381305,0.41092474 0 0 0 -0.24385,-0.0646 0.32253659,0.31272812 0 0 1 -0.26836,-0.48599 c 0.247684,-0.36026 0.265764,-0.95255 0.08578,-1.44168 -0.08837,-0.23943 -0.211585,-0.41779 -0.338011,-0.51726 -0.115481,-0.0901 -0.22384,-0.1126 -0.345125,-0.0729 a 0.32253659,0.31272812 0 0 1 -0.424456,-0.29646 c 0,-0.35527 -0.180617,-0.66109 -0.480573,-0.88689 a 1.8771628,1.8200776 0 0 0 -1.1321,-0.36402 0.49025556,0.47534671 0 0 0 -0.345125,0.11644 0.78698928,0.76305661 0 0 0 -0.199965,0.30646 1.6636435,1.6130515 0 0 0 -0.1,0.50914 v 5.63536 h 0.483817 c 0.445101,0 0.806341,-0.35028 0.806341,-0.78184 v -1.14772 a 0.96760978,0.93818438 0 1 1 0.645066,0 v 1.14772 a 1.4514145,1.4072764 0 0 1 -1.451407,1.40728 z m -2.580295,-4.6903 a 0.32253818,0.31272967 0 1 0 0.645072,0 0.32253818,0.31272967 0 0 0 -0.645072,0 m 4.192987,1.56365 a 0.32254881,0.31273998 0 1 0 0,-0.62547 0.32254881,0.31273998 0 0 0 0,0.62547 m -3.870448,1.87636 a 0.32254507,0.31273637 0 1 0 0,0.62547 0.32254507,0.31273637 0 0 0 0,-0.62547"
       id="path1"
       style="stroke-width:0.635188" /></g></svg>
