<?xml version="1.0" encoding="UTF-8" standalone="no"?>
<!-- Created with Inkscape (http://www.inkscape.org/) -->

<svg
   width="322.40982"
   height="85.95462"
   viewBox="0 0 77.140593 20.565741"
   version="1.1"
   id="svg1"
   xml:space="preserve"
   sodipodi:docname="titulo_negro.svg"
   inkscape:version="1.3.2 (091e20e, 2023-11-25, custom)"
   xmlns:inkscape="http://www.inkscape.org/namespaces/inkscape"
   xmlns:sodipodi="http://sodipodi.sourceforge.net/DTD/sodipodi-0.dtd"
   xmlns="http://www.w3.org/2000/svg"
   xmlns:svg="http://www.w3.org/2000/svg"><sodipodi:namedview
     id="namedview1"
     pagecolor="#ffffff"
     bordercolor="#000000"
     borderopacity="0.25"
     inkscape:showpageshadow="2"
     inkscape:pageopacity="0.0"
     inkscape:pagecheckerboard="0"
     inkscape:deskcolor="#d1d1d1"
     inkscape:document-units="cm"
     showgrid="false"
     inkscape:zoom="3.0617475"
     inkscape:cx="191.55727"
     inkscape:cy="44.255773"
     inkscape:window-width="1920"
     inkscape:window-height="991"
     inkscape:window-x="-9"
     inkscape:window-y="-9"
     inkscape:window-maximized="1"
     inkscape:current-layer="layer1"
     showguides="true" /><defs
     id="defs1" /><g
     inkscape:label="Capa 1"
     inkscape:groupmode="layer"
     id="layer1"
     transform="translate(-67.282827,-127.77476)"><text
       xml:space="preserve"
       style="font-size:11.1785px;fill:#000000;stroke-width:0.931527"
       x="-162.78401"
       y="71.822884"
       id="text1"
       transform="matrix(0.00824047,-0.90924157,1.0997743,0.00479712,0,0)"
       inkscape:export-filename="titulo_negro.svg"
       inkscape:export-xdpi="96"
       inkscape:export-ydpi="96"><tspan
         sodipodi:role="line"
         id="tspan1"
         style="font-style:normal;font-variant:normal;font-weight:normal;font-stretch:normal;font-family:Tahoma;-inkscape-font-specification:Tahoma;stroke-width:0.931527"
         x="-162.78401"
         y="71.822884">Tu</tspan></text><text
       xml:space="preserve"
       style="font-size:18.6377px;fill:#000000;stroke:#000000;stroke-width:0.735637;stroke-dasharray:none;stroke-opacity:1"
       x="66.866661"
       y="165.89229"
       id="text2"
       transform="scale(1.170202,0.85455329)"><tspan
         sodipodi:role="line"
         style="font-style:normal;font-variant:normal;font-weight:normal;font-stretch:normal;font-family:Tahoma;-inkscape-font-specification:Tahoma;stroke:#000000;stroke-width:0.735637;stroke-dasharray:none;stroke-opacity:1"
         x="66.866661"
         y="165.89229"
         id="tspan4">Núcleo</tspan></text><path
       fill="currentColor"
       d="m 71.328342,128.56038 a 2.3503637,2.3309572 0 0 1 1.424654,-0.47277 1.056161,1.0474403 0 0 1 0.90167,0.46503 1.056161,1.0474403 0 0 1 0.901668,-0.46503 2.3503637,2.3309572 0 0 1 1.424651,0.47277 c 0.315586,0.24318 0.559033,0.58008 0.644996,0.98726 0.197167,0.017 0.377501,0.096 0.528982,0.21804 0.229624,0.18471 0.396741,0.46201 0.501931,0.75533 0.164709,0.45605 0.209177,1.0373 0.03848,1.53208 0.04323,0.0197 0.08598,0.044 0.127442,0.0718 0.165299,0.10902 0.290937,0.2652 0.383508,0.4495 0.182147,0.36067 0.257273,0.86383 0.257273,1.47492 0,0.68019 -0.261492,1.13686 -0.593307,1.41882 a 1.610991,1.5976892 0 0 1 -0.633577,0.33087 c -0.06013,0.33266 -0.228416,0.71776 -0.492316,1.04446 -0.342638,0.42625 -0.874018,0.78275 -1.586944,0.78275 -0.565046,0 -1.014684,-0.31002 -1.30683,-0.61402 a 2.5559456,2.5348415 0 0 1 -0.195957,-0.22963 2.5517377,2.5306683 0 0 1 -0.195958,0.22963 c -0.292148,0.304 -0.741173,0.61402 -1.306835,0.61402 -0.712917,0 -1.243704,-0.3565 -1.586935,-0.78275 a 2.438728,2.4185916 0 0 1 -0.492315,-1.04446 1.610991,1.5976892 0 0 1 -0.633588,-0.33087 c -0.331806,-0.28187 -0.593289,-0.73923 -0.593289,-1.41882 0,-0.61109 0.07574,-1.11481 0.257274,-1.47492 a 1.154143,1.1446133 0 0 1 0.383513,-0.45006 0.94976358,0.94192132 0 0 1 0.127441,-0.0704 c -0.170701,-0.49601 -0.126232,-1.07664 0.03849,-1.53273 0.105192,-0.29329 0.272293,-0.57053 0.501934,-0.75536 0.15149,-0.122 0.331815,-0.20249 0.528976,-0.21803 0.08658,-0.40717 0.330022,-0.744 0.645602,-0.98723 m 2.025168,1.01762 v -0.009 l -0.0014,-0.0296 a 1.6494626,1.6358431 0 0 0 -0.09256,-0.45547 0.73456385,0.72849865 0 0 0 -0.185775,-0.2921 0.45684822,0.45307607 0 0 0 -0.321585,-0.11099 1.7492478,1.7348045 0 0 0 -1.055572,0.34692 c -0.278903,0.21522 -0.447225,0.50675 -0.447225,0.84535 a 0.30055807,0.29807638 0 0 1 -0.395538,0.28258 c -0.112984,-0.037 -0.213987,-0.017 -0.321594,0.0695 -0.117821,0.0952 -0.232634,0.26464 -0.314978,0.49299 -0.167718,0.46625 -0.150307,1.03079 0.07996,1.37417 a 0.30055807,0.29807638 0 0 1 0.05051,0.16523 h 0.450834 a 1.3525112,1.3413436 0 0 1 1.352503,1.34134 v 0.1997 a 0.90167422,0.89422916 0 1 1 -0.601114,0 v -0.1997 c 0,-0.41134 -0.336624,-0.74521 -0.751389,-0.74521 h -1.051949 a 0.29995692,0.29748021 0 0 1 -0.105194,-0.017 l -0.0014,0.006 c -0.119031,0.23555 -0.193566,0.62653 -0.193566,1.20781 0,0.51207 0.189348,0.8006 0.383502,0.96575 0.208586,0.17764 0.440026,0.2265 0.518172,0.2265 a 0.30055807,0.29807638 0 0 1 0.300558,0.29806 c 0,0.21946 0.12024,0.60275 0.384711,0.93182 0.257865,0.31892 0.628775,0.55857 1.118078,0.55857 0.336633,0 0.638382,-0.1864 0.871613,-0.42922 0.114841,-0.11919 0.204396,-0.2426 0.262703,-0.34397 a 0.94555559,0.93774828 0 0 0 0.06798,-0.14066 v -4.74955 h -0.652552 a 0.90167422,0.89422916 0 1 1 0,-0.59614 h 0.652217 z m 0.601114,5.96095 v 0.57648 a 0.94675796,0.93894059 0 0 0 0.06798,0.14066 c 0.05889,0.1014 0.147889,0.22481 0.262082,0.34397 0.233816,0.24262 0.536202,0.42925 0.872221,0.42925 0.489309,0 0.860194,-0.23978 1.118069,-0.5586 0.264474,-0.3291 0.384715,-0.71239 0.384715,-0.93179 a 0.30055807,0.29807638 0 0 1 0.300566,-0.29809 c 0.07813,0 0.309566,-0.0492 0.518158,-0.2265 0.194157,-0.16523 0.383513,-0.45372 0.383513,-0.9658 0,-0.58127 -0.07513,-0.97172 -0.193566,-1.20778 a 0.55483018,0.55024897 0 0 0 -0.18032,-0.22059 0.39493328,0.39167235 0 0 0 -0.227233,-0.0616 0.30055807,0.29807638 0 0 1 -0.250074,-0.46322 c 0.230807,-0.34338 0.247655,-0.90792 0.07993,-1.37414 -0.08235,-0.22821 -0.197167,-0.39821 -0.314978,-0.49302 -0.107612,-0.0859 -0.208587,-0.10733 -0.321607,-0.0695 a 0.30055807,0.29807638 0 0 1 -0.395533,-0.28257 c 0,-0.33862 -0.168309,-0.63012 -0.447825,-0.84534 a 1.7492478,1.7348045 0 0 0 -1.054956,-0.34696 0.45684822,0.45307607 0 0 0 -0.321607,0.11098 0.73336169,0.72730636 0 0 0 -0.186339,0.2921 1.5502783,1.5374778 0 0 0 -0.09319,0.48529 v 5.37134 h 0.450848 c 0.414771,0 0.751395,-0.33387 0.751395,-0.74521 v -1.09395 a 0.90167422,0.89422916 0 1 1 0.601109,0 v 1.09395 a 1.3525112,1.3413436 0 0 1 -1.352504,1.34134 z m -2.404467,-4.47055 a 0.30055955,0.29807786 0 1 0 0.601115,0 0.30055955,0.29807786 0 0 0 -0.601115,0 m 3.907265,1.49039 a 0.30056946,0.29808768 0 1 0 0,-0.59617 0.30056946,0.29808768 0 0 0 0,0.59617 m -3.606705,1.78845 a 0.30056597,0.29808424 0 1 0 0,0.59616 0.30056597,0.29808424 0 0 0 0,-0.59616"
       id="path1"
       style="stroke-width:0.598628" /><text
       xml:space="preserve"
       style="font-weight:bold;font-size:2.87115px;font-family:'Segoe UI';-inkscape-font-specification:'Segoe UI Bold';text-align:center;letter-spacing:0.0143558px;word-spacing:0.251226px;text-anchor:middle;white-space:pre;inline-size:34.3813;display:inline;fill:#e6e6e6;stroke:#ffffff;stroke-width:0"
       x="81.428726"
       y="145.89919"
       id="text3"
       transform="matrix(2.6216523,0,0,1.9043093,-103.11896,-131.05483)"><tspan
         x="81.428726"
         y="145.89919"
         id="tspan9"><tspan
           style="font-weight:normal;-inkscape-font-specification:'Segoe UI';fill:#ff0000"
           id="tspan6">De</tspan><tspan
           dx="-0.25122604"
           style="font-weight:normal;-inkscape-font-specification:'Segoe UI';fill:#000000"
           id="tspan7"> </tspan><tspan
           dx="0.2512261 0 0 0 0 0 0 0 -0.25122568 0.25122562"
           style="font-weight:normal;-inkscape-font-specification:'Segoe UI';fill:#ff0000"
           id="tspan8">acciones claves</tspan></tspan></text></g></svg>
